<?xml version="1.0" encoding="utf-8"?>
<svg version="1.1" xmlns:xlink="http://www.w3.org/1999/xlink" width="14px" height="11px" xmlns="http://www.w3.org/2000/svg">
  <g transform="matrix(1 0 0 1 -308 -146 )">
    <path d="M 1 9  L 1 10  L 9 10  L 9 9  L 1 9  Z M 1 5  L 1 6  L 9 6  L 9 5  L 1 5  Z M 13.03125 10.03125  C 13.1770833333333 9.88541666666667  13.25 9.70833333333333  13.25 9.5  C 13.25 9.29166666666667  13.1770833333333 9.11458333333333  13.03125 8.96875  C 12.8854166666667 8.82291666666667  12.7083333333333 8.75  12.5 8.75  C 12.2916666666667 8.75  12.1145833333333 8.82291666666667  11.96875 8.96875  C 11.8229166666667 9.11458333333333  11.75 9.29166666666667  11.75 9.5  C 11.75 9.70833333333333  11.8229166666667 9.88541666666667  11.96875 10.03125  C 12.1145833333333 10.1770833333333  12.2916666666667 10.25  12.5 10.25  C 12.7083333333333 10.25  12.8854166666667 10.1770833333333  13.03125 10.03125  Z M 1 1  L 1 2  L 9 2  L 9 1  L 1 1  Z M 13.03125 6.03125  C 13.1770833333333 5.88541666666667  13.25 5.70833333333333  13.25 5.5  C 13.25 5.29166666666667  13.1770833333333 5.11458333333333  13.03125 4.96875  C 12.8854166666667 4.82291666666667  12.7083333333333 4.75  12.5 4.75  C 12.2916666666667 4.75  12.1145833333333 4.82291666666667  11.96875 4.96875  C 11.8229166666667 5.11458333333333  11.75 5.29166666666667  11.75 5.5  C 11.75 5.70833333333333  11.8229166666667 5.88541666666667  11.96875 6.03125  C 12.1145833333333 6.17708333333333  12.2916666666667 6.25  12.5 6.25  C 12.7083333333333 6.25  12.8854166666667 6.17708333333333  13.03125 6.03125  Z M 13.03125 2.03125  C 13.1770833333333 1.88541666666667  13.25 1.70833333333333  13.25 1.5  C 13.25 1.29166666666667  13.1770833333333 1.11458333333333  13.03125 0.968749999999999  C 12.8854166666667 0.822916666666666  12.7083333333333 0.750000000000001  12.5 0.750000000000001  C 12.2916666666667 0.750000000000001  12.1145833333333 0.822916666666666  11.96875 0.968749999999999  C 11.8229166666667 1.11458333333333  11.75 1.29166666666667  11.75 1.5  C 11.75 1.70833333333333  11.8229166666667 1.88541666666667  11.96875 2.03125  C 12.1145833333333 2.17708333333333  12.2916666666667 2.25  12.5 2.25  C 12.7083333333333 2.25  12.8854166666667 2.17708333333333  13.03125 2.03125  Z M 0 8  L 14 8  L 14 11  L 0 11  L 0 8  Z M 0 4  L 14 4  L 14 7  L 0 7  L 0 4  Z M 0 0  L 14 0  L 14 3  L 0 3  L 0 0  Z " fill-rule="nonzero" fill="#424242" stroke="none" transform="matrix(1 0 0 1 308 146 )" />
  </g>
</svg>