<?xml version="1.0" encoding="utf-8"?>
<svg version="1.1" xmlns:xlink="http://www.w3.org/1999/xlink" width="22px" height="22px" xmlns="http://www.w3.org/2000/svg">
  <g transform="matrix(1 0 0 1 -304 -140 )">
    <path d="M 315 140  C 321.16 140  326 144.84  326 151  C 326 157.16  321.16 162  315 162  C 308.84 162  304 157.16  304 151  C 304 144.84  308.84 140  315 140  Z " fill-rule="nonzero" fill="#ffffff" stroke="none" />
    <path d="M 315 140.5  C 320.88 140.5  325.5 145.12  325.5 151  C 325.5 156.88  320.88 161.5  315 161.5  C 309.12 161.5  304.5 156.88  304.5 151  C 304.5 145.12  309.12 140.5  315 140.5  Z " stroke-width="1" stroke="#ffffff" fill="none" />
  </g>
</svg>