<?xml version="1.0" encoding="utf-8"?>
<svg version="1.1" xmlns:xlink="http://www.w3.org/1999/xlink" width="40px" height="40px" xmlns="http://www.w3.org/2000/svg">
  <g transform="matrix(1 0 0 1 -496 -6333 )">
    <path d="M 32.96875 16.953125  C 33.28125 16.640625  33.4375 16.25  33.4375 15.78125  C 33.4375 15.2951388888889  33.28125 14.8958333333333  32.96875 14.5833333333333  L 30.5989583333333 12.2395833333333  C 30.2690972222222 11.9097222222222  29.8784722222222 11.7447916666667  29.4270833333333 11.7447916666667  C 28.9756944444444 11.7447916666667  28.5850694444444 11.9097222222222  28.2552083333333 12.2395833333333  L 17.6302083333333 22.8385416666667  L 11.7447916666667 16.953125  C 11.4149305555556 16.6232638888889  11.0243055555556 16.4583333333333  10.5729166666667 16.4583333333333  C 10.1215277777778 16.4583333333333  9.73090277777778 16.6232638888889  9.40104166666667 16.953125  L 7.03125 19.296875  C 6.71875 19.609375  6.5625 20.0086805555556  6.5625 20.4947916666667  C 6.5625 20.9635416666667  6.71875 21.3541666666667  7.03125 21.6666666666667  L 16.4583333333333 31.09375  C 16.7881944444444 31.4236111111111  17.1788194444444 31.5885416666667  17.6302083333333 31.5885416666667  C 18.0989583333333 31.5885416666667  18.4982638888889 31.4236111111111  18.828125 31.09375  L 32.96875 16.953125  Z M 37.3177083333333 9.9609375  C 39.1059027777778 13.0251736111111  40 16.3715277777778  40 20  C 40 23.6284722222222  39.1059027777778 26.9748263888889  37.3177083333333 30.0390625  C 35.5295138888889 33.1032986111111  33.1032986111111 35.5295138888889  30.0390625 37.3177083333333  C 26.9748263888889 39.1059027777778  23.6284722222222 40  20 40  C 16.3715277777778 40  13.0251736111111 39.1059027777778  9.9609375 37.3177083333333  C 6.89670138888889 35.5295138888889  4.47048611111111 33.1032986111111  2.68229166666667 30.0390625  C 0.894097222222222 26.9748263888889  0 23.6284722222222  0 20  C 0 16.3715277777778  0.894097222222222 13.0251736111111  2.68229166666667 9.9609375  C 4.47048611111111 6.89670138888889  6.89670138888889 4.47048611111111  9.9609375 2.68229166666667  C 13.0251736111111 0.894097222222219  16.3715277777778 0  20 0  C 23.6284722222222 0  26.9748263888889 0.894097222222219  30.0390625 2.68229166666667  C 33.1032986111111 4.47048611111111  35.5295138888889 6.89670138888889  37.3177083333333 9.9609375  Z " fill-rule="nonzero" fill="#12b270" stroke="none" transform="matrix(1 0 0 1 496 6333 )" />
  </g>
</svg>