<?xml version="1.0" encoding="utf-8"?>
<svg version="1.1" xmlns:xlink="http://www.w3.org/1999/xlink" width="40px" height="40px" xmlns="http://www.w3.org/2000/svg">
  <g transform="matrix(1 0 0 1 -490 -7025 )">
    <path d="M 29.4270833333333 27.0833333333333  C 29.7569444444444 26.7534722222222  29.921875 26.3541666666667  29.921875 25.8854166666667  C 29.921875 25.4340277777778  29.7569444444444 25.0434027777778  29.4270833333333 24.7135416666667  L 24.7135416666667 20  L 29.4270833333333 15.2864583333333  C 29.7569444444444 14.9565972222222  29.921875 14.5659722222222  29.921875 14.1145833333333  C 29.921875 13.6458333333333  29.7569444444444 13.2465277777778  29.4270833333333 12.9166666666667  L 27.0833333333333 10.5729166666667  C 26.7534722222222 10.2430555555556  26.3541666666667 10.078125  25.8854166666667 10.078125  C 25.4340277777778 10.078125  25.0434027777778 10.2430555555556  24.7135416666667 10.5729166666667  L 20 15.2864583333333  L 15.2864583333333 10.5729166666667  C 14.9565972222222 10.2430555555556  14.5659722222222 10.078125  14.1145833333333 10.078125  C 13.6458333333333 10.078125  13.2465277777778 10.2430555555556  12.9166666666667 10.5729166666667  L 10.5729166666667 12.9166666666667  C 10.2430555555556 13.2465277777778  10.078125 13.6458333333333  10.078125 14.1145833333333  C 10.078125 14.5659722222222  10.2430555555556 14.9565972222222  10.5729166666667 15.2864583333333  L 15.2864583333333 20  L 10.5729166666667 24.7135416666667  C 10.2430555555556 25.0434027777778  10.078125 25.4340277777778  10.078125 25.8854166666667  C 10.078125 26.3541666666667  10.2430555555556 26.7534722222222  10.5729166666667 27.0833333333333  L 12.9166666666667 29.4270833333333  C 13.2465277777778 29.7569444444444  13.6458333333333 29.921875  14.1145833333333 29.921875  C 14.5659722222222 29.921875  14.9565972222222 29.7569444444444  15.2864583333333 29.4270833333333  L 20 24.7135416666667  L 24.7135416666667 29.4270833333333  C 25.0434027777778 29.7569444444444  25.4340277777778 29.921875  25.8854166666667 29.921875  C 26.3541666666667 29.921875  26.7534722222222 29.7569444444444  27.0833333333333 29.4270833333333  L 29.4270833333333 27.0833333333333  Z M 37.3177083333333 9.9609375  C 39.1059027777778 13.0251736111111  40 16.3715277777778  40 20  C 40 23.6284722222222  39.1059027777778 26.9748263888889  37.3177083333333 30.0390625  C 35.5295138888889 33.1032986111111  33.1032986111111 35.5295138888889  30.0390625 37.3177083333333  C 26.9748263888889 39.1059027777778  23.6284722222222 40  20 40  C 16.3715277777778 40  13.0251736111111 39.1059027777778  9.9609375 37.3177083333333  C 6.89670138888889 35.5295138888889  4.47048611111111 33.1032986111111  2.68229166666667 30.0390625  C 0.894097222222222 26.9748263888889  0 23.6284722222222  0 20  C 0 16.3715277777778  0.894097222222222 13.0251736111111  2.68229166666667 9.9609375  C 4.47048611111111 6.89670138888889  6.89670138888889 4.47048611111111  9.9609375 2.68229166666667  C 13.0251736111111 0.894097222222219  16.3715277777778 0  20 0  C 23.6284722222222 0  26.9748263888889 0.894097222222219  30.0390625 2.68229166666667  C 33.1032986111111 4.47048611111111  35.5295138888889 6.89670138888889  37.3177083333333 9.9609375  Z " fill-rule="nonzero" fill="#d94e4c" stroke="none" transform="matrix(1 0 0 1 490 7025 )" />
  </g>
</svg>