<?xml version="1.0" encoding="utf-8"?>
<svg version="1.1" xmlns:xlink="http://www.w3.org/1999/xlink" width="14px" height="14px" xmlns="http://www.w3.org/2000/svg">
  <g transform="matrix(1 0 0 1 -2962 -6198 )">
    <path d="M 10.2994791666667 9.47916666666667  C 10.4149305555556 9.36371527777778  10.47265625 9.22395833333333  10.47265625 9.05989583333333  C 10.47265625 8.90190972222222  10.4149305555556 8.76519097222222  10.2994791666667 8.64973958333333  L 8.64973958333333 7  L 10.2994791666667 5.35026041666667  C 10.4149305555556 5.23480902777778  10.47265625 5.09809027777778  10.47265625 4.94010416666667  C 10.47265625 4.77604166666667  10.4149305555556 4.63628472222222  10.2994791666667 4.52083333333333  L 9.47916666666667 3.70052083333333  C 9.36371527777778 3.58506944444444  9.22395833333333 3.52734375  9.05989583333333 3.52734375  C 8.90190972222222 3.52734375  8.76519097222222 3.58506944444444  8.64973958333333 3.70052083333333  L 7 5.35026041666667  L 5.35026041666667 3.70052083333333  C 5.23480902777778 3.58506944444444  5.09809027777778 3.52734375  4.94010416666667 3.52734375  C 4.77604166666667 3.52734375  4.63628472222222 3.58506944444444  4.52083333333333 3.70052083333333  L 3.70052083333333 4.52083333333333  C 3.58506944444444 4.63628472222222  3.52734375 4.77604166666667  3.52734375 4.94010416666667  C 3.52734375 5.09809027777778  3.58506944444444 5.23480902777778  3.70052083333333 5.35026041666667  L 5.35026041666667 7  L 3.70052083333333 8.64973958333333  C 3.58506944444444 8.76519097222222  3.52734375 8.90190972222222  3.52734375 9.05989583333333  C 3.52734375 9.22395833333333  3.58506944444444 9.36371527777778  3.70052083333333 9.47916666666667  L 4.52083333333333 10.2994791666667  C 4.63628472222222 10.4149305555556  4.77604166666667 10.47265625  4.94010416666667 10.47265625  C 5.09809027777778 10.47265625  5.23480902777778 10.4149305555556  5.35026041666667 10.2994791666667  L 7 8.64973958333333  L 8.64973958333333 10.2994791666667  C 8.76519097222222 10.4149305555556  8.90190972222222 10.47265625  9.05989583333333 10.47265625  C 9.22395833333333 10.47265625  9.36371527777778 10.4149305555556  9.47916666666667 10.2994791666667  L 10.2994791666667 9.47916666666667  Z M 13.0611979166667 3.486328125  C 13.6870659722222 4.55881076388889  14 5.73003472222222  14 7  C 14 8.26996527777778  13.6870659722222 9.44118923611111  13.0611979166667 10.513671875  C 12.4353298611111 11.5861545138889  11.5861545138889 12.4353298611111  10.513671875 13.0611979166667  C 9.44118923611111 13.6870659722222  8.26996527777778 14  7 14  C 5.73003472222222 14  4.55881076388889 13.6870659722222  3.486328125 13.0611979166667  C 2.41384548611111 12.4353298611111  1.56467013888889 11.5861545138889  0.938802083333333 10.513671875  C 0.312934027777778 9.44118923611111  0 8.26996527777778  0 7  C 0 5.73003472222222  0.312934027777778 4.55881076388889  0.938802083333333 3.486328125  C 1.56467013888889 2.41384548611111  2.41384548611111 1.56467013888889  3.486328125 0.938802083333333  C 4.55881076388889 0.312934027777777  5.73003472222222 0  7 0  C 8.26996527777778 0  9.44118923611111 0.312934027777777  10.513671875 0.938802083333333  C 11.5861545138889 1.56467013888889  12.4353298611111 2.41384548611111  13.0611979166667 3.486328125  Z " fill-rule="nonzero" fill="#d94e4c" stroke="none" transform="matrix(1 0 0 1 2962 6198 )" />
  </g>
</svg>